# xmcd
#
# Track frame offsets:
#	150
#	18512
#	31040
#	44863
#	63066
#	79974
#	95254
#	107425
#	120466
#	135490
#
# Disc length: 2007 seconds
#
# Revision: 1
# Processed by: cddbd v1.5.2PL0 Copyright (c) Steve Scherf et al.
# Submitted via: audiograbber 1.83.01
#
DISCID=7507d50a
DTITLE=Blanco Brown - Honeysuckle and Lightning Bugs
DYEAR=2019
DGENRE=Country
TTITLE0=Temporary Insanity
TTITLE1=HeadNod
TTITLE2=Funky Tonk
TTITLE3=CountryTime
TTITLE4=Georgia Power
TTITLE5=Gemini (Damn Right)
TTITLE6=Ghett Ol Memories
TTITLE7=Don't Love Her
TTITLE8=Tn Whiskey
TTITLE9=The Git Up
EXTD=
EXTT0=
EXTT1=
EXTT2=
EXTT3=
EXTT4=
EXTT5=
EXTT6=
EXTT7=
EXTT8=
EXTT9=
PLAYORDER=
